<svg width="23" height="23" viewBox="0 0 23 23" fill="none" xmlns="http://www.w3.org/2000/svg">
<rect width="23" height="23" rx="11.5" fill="#1C1C1C"/>
<path d="M12.1856 15.8616L8.13958 11.8356C8.09535 11.7916 8.06024 11.7393 8.03629 11.6818C8.01233 11.6242 8 11.5625 8 11.5001C8 11.4378 8.01233 11.3759 8.03629 11.3184C8.06024 11.2608 8.09535 11.2085 8.13958 11.1646L12.1846 7.13855C12.2743 7.04976 12.3954 7 12.5216 7C12.6478 7 12.7689 7.04976 12.8586 7.13855C12.9029 7.18244 12.9381 7.23477 12.9622 7.29236C12.9862 7.34995 12.9986 7.41172 12.9986 7.47412C12.9986 7.53652 12.9862 7.5983 12.9622 7.65588C12.9381 7.71347 12.9029 7.76568 12.8586 7.80957L9.14958 11.5006L12.8586 15.1906C12.903 15.2345 12.9382 15.2869 12.9622 15.3446C12.9863 15.4023 12.9987 15.4641 12.9987 15.5266C12.9987 15.5891 12.9863 15.6509 12.9622 15.7086C12.9382 15.7663 12.903 15.8186 12.8586 15.8625C12.8143 15.9067 12.7617 15.9417 12.7039 15.9656C12.6461 15.9894 12.5841 16.0017 12.5216 16.0016C12.3955 16.0011 12.2747 15.9507 12.1856 15.8616Z" fill="white"/>
</svg>
