<svg width="14" height="14" viewBox="0 0 14 14" fill="none" xmlns="http://www.w3.org/2000/svg">
<path d="M12.2749 3.35765C11.3097 2.59936 10.1328 2.15945 8.90688 2.09866L8.73888 2.29066C9.83042 2.58092 10.8479 3.09969 11.7239 3.81266C10.6073 3.19771 9.38134 2.80673 8.11488 2.66166C7.30982 2.57301 6.49703 2.58107 5.69388 2.68566C5.62664 2.68787 5.55973 2.6959 5.49388 2.70966C4.55315 2.81668 3.63519 3.07148 2.77388 3.46466C2.32988 3.66466 2.06688 3.81166 2.06688 3.81166C2.98945 3.06312 4.06563 2.52708 5.21887 2.24166L5.09888 2.09766C3.87293 2.15845 2.6961 2.59836 1.73088 3.35666C0.63381 5.52524 0.0436332 7.91468 0.00488281 10.3447C0.418461 10.9248 0.968279 11.3944 1.60597 11.7121C2.24367 12.0298 2.94968 12.1859 3.66188 12.1667C3.66188 12.1667 4.10488 11.6277 4.46188 11.1717C3.61837 10.9597 2.87551 10.4595 2.36188 9.75766C2.36188 9.75766 2.48188 9.84166 2.69788 9.95766C2.71136 9.97227 2.72725 9.98445 2.74487 9.99366C2.78187 10.0177 2.81787 10.0297 2.85287 10.0527C3.13472 10.2088 3.42709 10.3451 3.72787 10.4607C4.29803 10.6854 4.88747 10.8578 5.48888 10.9757C6.51252 11.1719 7.56375 11.176 8.58888 10.9877C9.1864 10.8833 9.76991 10.7105 10.3279 10.4727C10.8123 10.2894 11.2745 10.0522 11.7059 9.76566C11.1737 10.4819 10.4054 10.987 9.53688 11.1917C9.89688 11.6467 10.3279 12.1617 10.3279 12.1617C11.0413 12.1796 11.7483 12.023 12.3873 11.7054C13.0264 11.3879 13.5783 10.919 13.9949 10.3397C13.9569 7.9122 13.3688 5.52499 12.2749 3.35765ZM4.75987 9.23066C4.42218 9.2143 4.10454 9.06552 3.87579 8.81656C3.64705 8.5676 3.52564 8.23853 3.53787 7.90066C3.53063 7.733 3.55651 7.56557 3.61401 7.40792C3.67152 7.25027 3.75953 7.1055 3.87302 6.98188C3.98651 6.85827 4.12325 6.75824 4.27542 6.68751C4.4276 6.61677 4.59221 6.57673 4.75987 6.56966C4.92788 6.57568 5.09301 6.61502 5.24568 6.68539C5.39835 6.75577 5.53552 6.85578 5.64922 6.97962C5.76291 7.10345 5.85087 7.24864 5.90797 7.40675C5.96508 7.56487 5.99019 7.73275 5.98187 7.90066C5.98898 8.06823 5.96302 8.23556 5.90546 8.39309C5.84789 8.55062 5.75985 8.69527 5.64638 8.81878C5.5329 8.94228 5.3962 9.04223 5.24409 9.1129C5.09199 9.18357 4.92745 9.22358 4.75987 9.23066ZM9.13487 9.23066C8.79718 9.2143 8.47954 9.06552 8.25079 8.81656C8.02205 8.5676 7.90064 8.23853 7.91287 7.90066C7.90563 7.733 7.93151 7.56557 7.98901 7.40792C8.04652 7.25027 8.13453 7.1055 8.24802 6.98188C8.36151 6.85827 8.49825 6.75824 8.65042 6.68751C8.8026 6.61677 8.96721 6.57673 9.13487 6.56966C9.30253 6.57673 9.46716 6.61677 9.61934 6.68751C9.77151 6.75824 9.90825 6.85827 10.0217 6.98188C10.1352 7.1055 10.2232 7.25027 10.2807 7.40792C10.3383 7.56557 10.3641 7.733 10.3569 7.90066C10.364 8.06823 10.338 8.23556 10.2805 8.39309C10.2229 8.55062 10.1349 8.69527 10.0214 8.81878C9.9079 8.94228 9.7712 9.04223 9.61909 9.1129C9.46699 9.18357 9.30245 9.22358 9.13487 9.23066Z" fill="#1C1C1C"/>
</svg>
