<svg width="14" height="14" viewBox="0 0 14 14" fill="none" xmlns="http://www.w3.org/2000/svg">
<path d="M12.2739 3.35765C11.3087 2.59936 10.1318 2.15945 8.9059 2.09866L8.7379 2.29066C9.82944 2.58092 10.8469 3.09969 11.7229 3.81266C10.6063 3.19771 9.38036 2.80673 8.11391 2.66166C7.30884 2.57301 6.49605 2.58107 5.6929 2.68566C5.62567 2.68787 5.55875 2.6959 5.4929 2.70966C4.55217 2.81668 3.63421 3.07148 2.7729 3.46466C2.3289 3.66466 2.0659 3.81166 2.0659 3.81166C2.98847 3.06312 4.06465 2.52708 5.2179 2.24166L5.0979 2.09766C3.87195 2.15845 2.69512 2.59836 1.7299 3.35666C0.632834 5.52524 0.0426567 7.91468 0.00390625 10.3447C0.417484 10.9248 0.967302 11.3944 1.605 11.7121C2.24269 12.0298 2.94871 12.1859 3.6609 12.1667C3.6609 12.1667 4.10391 11.6277 4.46091 11.1717C3.6174 10.9597 2.87453 10.4595 2.3609 9.75766C2.3609 9.75766 2.4809 9.84166 2.6969 9.95766C2.71038 9.97227 2.72628 9.98445 2.7439 9.99366C2.7809 10.0177 2.8169 10.0297 2.8519 10.0527C3.13374 10.2088 3.42612 10.3451 3.7269 10.4607C4.29706 10.6854 4.88649 10.8578 5.4879 10.9757C6.51154 11.1719 7.56278 11.176 8.58791 10.9877C9.18542 10.8833 9.76893 10.7105 10.3269 10.4727C10.8113 10.2894 11.2735 10.0522 11.7049 9.76566C11.1727 10.4819 10.4045 10.987 9.5359 11.1917C9.8959 11.6467 10.3269 12.1617 10.3269 12.1617C11.0403 12.1796 11.7473 12.023 12.3864 11.7054C13.0255 11.3879 13.5773 10.919 13.9939 10.3397C13.9559 7.9122 13.3678 5.52499 12.2739 3.35765ZM4.7589 9.23066C4.4212 9.2143 4.10356 9.06552 3.87482 8.81656C3.64607 8.5676 3.52466 8.23853 3.5369 7.90066C3.52965 7.733 3.55553 7.56557 3.61304 7.40792C3.67054 7.25027 3.75855 7.1055 3.87204 6.98188C3.98553 6.85827 4.12227 6.75824 4.27444 6.68751C4.42662 6.61677 4.59124 6.57673 4.7589 6.56966C4.9269 6.57568 5.09203 6.61502 5.24471 6.68539C5.39738 6.75577 5.53455 6.85578 5.64824 6.97962C5.76193 7.10345 5.84989 7.24864 5.907 7.40675C5.96411 7.56487 5.98922 7.73275 5.9809 7.90066C5.98801 8.06823 5.96205 8.23556 5.90448 8.39309C5.84691 8.55062 5.75888 8.69527 5.6454 8.81878C5.53192 8.94228 5.39522 9.04223 5.24312 9.1129C5.09101 9.18357 4.92647 9.22358 4.7589 9.23066ZM9.1339 9.23066C8.7962 9.2143 8.47856 9.06552 8.24982 8.81656C8.02107 8.5676 7.89966 8.23853 7.9119 7.90066C7.90465 7.733 7.93053 7.56557 7.98804 7.40792C8.04554 7.25027 8.13355 7.1055 8.24704 6.98188C8.36053 6.85827 8.49727 6.75824 8.64944 6.68751C8.80162 6.61677 8.96624 6.57673 9.1339 6.56966C9.30156 6.57673 9.46619 6.61677 9.61836 6.68751C9.77054 6.75824 9.90728 6.85827 10.0208 6.98188C10.1343 7.1055 10.2223 7.25027 10.2798 7.40792C10.3373 7.56557 10.3631 7.733 10.3559 7.90066C10.363 8.06823 10.337 8.23556 10.2795 8.39309C10.2219 8.55062 10.1339 8.69527 10.0204 8.81878C9.90692 8.94228 9.77022 9.04223 9.61812 9.1129C9.46601 9.18357 9.30147 9.22358 9.1339 9.23066Z" fill="white"/>
</svg>
