<svg width="20" height="20" viewBox="0 0 20 20" fill="none" xmlns="http://www.w3.org/2000/svg">
<path d="M17.143 5.71486H2.85729C2.60228 5.71485 2.35192 5.78311 2.1322 5.91254C1.91248 6.04197 1.73141 6.22786 1.60779 6.4509C1.48417 6.67394 1.42251 6.926 1.4292 7.18092C1.4359 7.43584 1.5107 7.68432 1.64586 7.90057L8.78871 14.052C8.91683 14.2587 9.09561 14.4293 9.30811 14.5476C9.52061 14.6659 9.75979 14.728 10.003 14.728C10.2462 14.728 10.4854 14.6659 10.6979 14.5476C10.9104 14.4293 11.0892 14.2587 11.2173 14.052L18.3601 7.90057C18.4956 7.68391 18.5704 7.4349 18.5768 7.17949C18.5833 6.92408 18.5211 6.67161 18.3968 6.44839C18.2725 6.22518 18.0906 6.03938 17.8701 5.91036C17.6496 5.78135 17.3985 5.71383 17.143 5.71486Z" fill="#1C1C1C"/>
</svg>
