<svg width="15" height="16" viewBox="0 0 15 16" fill="none" xmlns="http://www.w3.org/2000/svg">
<path d="M15 7.99978C14.9996 6.62222 14.6198 5.27138 13.9023 4.09544C13.1847 2.9195 12.1572 1.96389 10.9323 1.33345C9.7075 0.703016 8.3327 0.422095 6.95872 0.521513C5.58475 0.62093 4.26472 1.09684 3.14339 1.89704C2.02207 2.69724 1.14279 3.79082 0.602022 5.0578C0.0612551 6.32479 -0.120102 7.71625 0.0778177 9.07952C0.275738 10.4428 0.845303 11.7252 1.72403 12.7861C2.60276 13.847 3.75669 14.6454 5.05927 15.0937C5.16443 15.0395 5.25462 14.9602 5.32189 14.8628C5.38916 14.7655 5.43144 14.6531 5.445 14.5355C5.445 14.123 5.43535 13.0612 5.43535 13.0612C5.17358 13.0998 4.90923 13.1185 4.64463 13.1169C4.27108 13.1396 3.90052 13.0382 3.59052 12.8286C3.28051 12.6189 3.04843 12.3128 2.93036 11.9576C2.76668 11.5412 2.47032 11.1902 2.08714 10.9591C1.89321 10.8337 1.84928 10.6859 2.07321 10.6451C3.10928 10.4512 3.37392 11.813 4.06607 12.0305C4.54443 12.1794 5.06181 12.138 5.51036 11.9148C5.57517 11.5278 5.78903 11.1816 6.10607 10.9505C5.44535 10.9669 4.79136 10.8144 4.20601 10.5075C3.62067 10.2006 3.12332 9.74937 2.76106 9.19656L2.70321 9.08943L2.56714 8.7787L2.52643 8.67157C2.35243 8.12272 2.2699 7.54899 2.28215 6.97335C2.26551 6.57707 2.33032 6.1816 2.47259 5.81136C2.61486 5.44113 2.83155 5.10401 3.10928 4.82085C2.88268 4.10893 2.92929 3.33815 3.24 2.65871C3.24 2.65871 4.00179 2.50121 5.44179 3.52657C6.69912 3.1912 8.01909 3.16619 9.28822 3.4537C9.8925 3.0562 11.0025 2.48942 11.4439 2.65013C11.7421 3.27253 11.7986 3.98345 11.6025 4.64513C12.2325 5.31676 12.5711 6.2104 12.5443 7.13085C12.5425 7.65103 12.4777 8.16909 12.3514 8.67371L12.2871 8.89442C12.2871 8.89442 12.2496 9.00156 12.2089 9.09799L12.1607 9.20514C11.6389 10.3462 10.5675 10.7716 8.83928 10.9483C9.39964 11.2998 9.56036 11.7401 9.56036 12.9326C9.56036 14.1251 9.54427 14.2848 9.54855 14.5591C9.56486 14.6726 9.6067 14.7809 9.67091 14.8759C9.73512 14.9709 9.82004 15.0502 9.91928 15.1076C11.4026 14.6022 12.6902 13.6448 13.6015 12.3699C14.5128 11.0951 15.0018 9.56683 15 7.99978Z" fill="#1C1C1C"/>
</svg>
