<svg width="14" height="14" viewBox="0 0 14 14" fill="none" xmlns="http://www.w3.org/2000/svg">
<path d="M14 6.99714C13.9995 5.71143 13.6449 4.45072 12.9751 3.35326C12.3052 2.25581 11.3461 1.36402 10.2029 0.775735C9.05969 0.187449 7.77653 -0.0746041 6.49418 0.018303C5.21183 0.11121 3.97984 0.555493 2.93336 1.30243C1.88687 2.04936 1.0663 3.07008 0.561685 4.25262C0.0570683 5.43516 -0.112114 6.73385 0.0726979 8.0062C0.25751 9.27856 0.789181 10.4754 1.60938 11.4655C2.42958 12.4556 3.50662 13.2007 4.72236 13.6191C4.82066 13.5685 4.90497 13.4945 4.96782 13.4036C5.03068 13.3126 5.07016 13.2076 5.08273 13.0978C5.08273 12.7128 5.07425 11.7226 5.07425 11.7226C4.83003 11.7585 4.58343 11.7757 4.33659 11.7742C3.98804 11.7962 3.64199 11.7024 3.35222 11.5075C3.06246 11.3125 2.84521 11.0273 2.73424 10.6962C2.58156 10.3075 2.30498 9.98005 1.94732 9.76451C1.76637 9.64747 1.72478 9.50963 1.93422 9.47113C2.90133 9.29018 3.14851 10.5614 3.79453 10.7647C4.24106 10.9038 4.72401 10.8652 5.14277 10.6569C5.20262 10.2953 5.40231 9.97169 5.69872 9.75603C4.05555 9.60203 3.08074 9.03146 2.57717 8.11902L2.52326 8.01739L2.39622 7.72787L2.35849 7.62393C2.19508 7.1117 2.11704 6.57607 2.12749 6.0385C2.11174 5.66881 2.17193 5.2998 2.30437 4.95428C2.4368 4.60876 2.63866 4.29406 2.89749 4.0296C2.68604 3.36538 2.72941 2.64623 3.01915 2.01223C3.01915 2.01223 3.73061 1.86516 5.07425 2.82226C6.24784 2.50883 7.48002 2.48531 8.66471 2.75373C9.22835 2.38259 10.2609 1.85592 10.6767 2.00376C10.9546 2.5847 11.0073 3.24807 10.8246 3.86559C11.4122 4.49229 11.7281 5.32604 11.7031 6.1848C11.7014 6.67028 11.6409 7.15375 11.5229 7.62468L11.4629 7.83027C11.4629 7.83027 11.4282 7.9273 11.3905 8.02047L11.3458 8.1221C10.8584 9.187 9.85898 9.58509 8.24431 9.74987C8.7679 10.0779 8.91727 10.4891 8.91727 11.5978C8.91727 12.7066 8.90266 12.8599 8.90574 13.1163C8.92103 13.2223 8.96016 13.3234 9.02017 13.4121C9.08019 13.5008 9.15952 13.5747 9.25222 13.6283C10.6367 13.1568 11.8389 12.2638 12.6903 11.0747C13.5417 9.88548 13.9997 8.45969 14 6.99714Z" fill="white"/>
</svg>
