<svg width="14" height="14" viewBox="0 0 14 14" fill="none" xmlns="http://www.w3.org/2000/svg">
<path d="M7.73609 12.999H5.25209V4.983H7.62909V6.083H7.66109C7.89857 5.67329 8.24344 5.33623 8.65847 5.10818C9.0735 4.88014 9.54293 4.76977 10.0161 4.789C12.6381 4.789 13.0001 6.624 13.0001 8.607V12.999H10.5161V9.099C10.5161 8.199 10.5161 6.972 9.22509 6.972C7.9121 6.972 7.73509 8.012 7.73509 9.028L7.73609 12.999ZM3.68309 12.999H1.19409V4.983H3.68309V12.999ZM2.44409 3.89C2.15822 3.89059 1.87859 3.80637 1.64058 3.648C1.40258 3.48963 1.21691 3.26422 1.10705 3.00029C0.997189 2.73636 0.968087 2.44578 1.02342 2.1653C1.07876 1.88483 1.21604 1.62707 1.41791 1.42465C1.61978 1.22222 1.87715 1.08422 2.15747 1.02811C2.43779 0.971997 2.72845 1.00029 2.99268 1.10942C3.25692 1.21855 3.48284 1.4036 3.64187 1.64116C3.8009 1.87872 3.8859 2.15812 3.88609 2.444C3.8861 2.82681 3.7343 3.194 3.46399 3.46506C3.19367 3.73612 2.8269 3.88894 2.44409 3.89Z" fill="#1C1C1C"/>
</svg>
