<svg width="14" height="14" viewBox="0 0 14 14" fill="none" xmlns="http://www.w3.org/2000/svg">
<path d="M3.974 10.7488C6.16878 10.7488 7.948 8.96956 7.948 6.77478C7.948 4.58 6.16878 2.80078 3.974 2.80078C1.77922 2.80078 0 4.58 0 6.77478C0 8.96956 1.77922 10.7488 3.974 10.7488Z" fill="#1C1C1C"/>
<path d="M10.2916 10.4927C11.3641 10.4927 12.2336 8.82763 12.2336 6.77369C12.2336 4.71974 11.3641 3.05469 10.2916 3.05469C9.21907 3.05469 8.34961 4.71974 8.34961 6.77369C8.34961 8.82763 9.21907 10.4927 10.2916 10.4927Z" fill="#1C1C1C"/>
<path d="M13.2901 10.1136C13.6828 10.1136 14.0011 8.61822 14.0011 6.77359C14.0011 4.92896 13.6828 3.43359 13.2901 3.43359C12.8974 3.43359 12.5791 4.92896 12.5791 6.77359C12.5791 8.61822 12.8974 10.1136 13.2901 10.1136Z" fill="#1C1C1C"/>
</svg>
