<svg width="14" height="14" viewBox="0 0 14 14" fill="none" xmlns="http://www.w3.org/2000/svg">
<path d="M3.97372 10.7488C6.16834 10.7488 7.94743 8.96956 7.94743 6.77478C7.94743 4.58 6.16834 2.80078 3.97372 2.80078C1.77909 2.80078 0 4.58 0 6.77478C0 8.96956 1.77909 10.7488 3.97372 10.7488Z" fill="white"/>
<path d="M10.2915 10.4927C11.3639 10.4927 12.2333 8.82763 12.2333 6.77369C12.2333 4.71974 11.3639 3.05469 10.2915 3.05469C9.21901 3.05469 8.34961 4.71974 8.34961 6.77369C8.34961 8.82763 9.21901 10.4927 10.2915 10.4927Z" fill="white"/>
<path d="M13.2891 10.1136C13.6818 10.1136 14.0001 8.61822 14.0001 6.77359C14.0001 4.92896 13.6818 3.43359 13.2891 3.43359C12.8965 3.43359 12.5781 4.92896 12.5781 6.77359C12.5781 8.61822 12.8965 10.1136 13.2891 10.1136Z" fill="white"/>
</svg>
