<svg width="14" height="14" viewBox="0 0 14 14" fill="none" xmlns="http://www.w3.org/2000/svg">
<path d="M2.74092 2.45229C3.15985 2.8029 3.31944 2.78228 4.11074 2.72728L11.5716 2.26667C11.7312 2.26667 11.5982 2.10167 11.545 2.07417L10.3082 1.14607C10.0688 0.953569 9.75627 0.740449 9.15115 0.788573L1.92967 1.33169C1.66368 1.35919 1.61049 1.49668 1.71688 1.60668L2.74092 2.45229ZM3.18644 4.24662V12.3589C3.18644 12.7921 3.39923 12.9571 3.87136 12.9296L12.0703 12.4414C12.5425 12.4139 12.5957 12.1115 12.5957 11.7608V3.70351C12.5957 3.35289 12.4627 3.1604 12.1767 3.1879L3.61202 3.70351C3.29284 3.73101 3.18644 3.89601 3.18644 4.24662ZM11.279 4.68661C11.3322 4.93411 11.279 5.17473 11.0396 5.20223L10.6473 5.28472V11.2727C10.3015 11.4652 9.989 11.5752 9.72302 11.5752C9.30409 11.5752 9.1977 11.4377 8.87852 11.0321L6.29182 6.83844V10.8946L7.10972 11.0871C7.10972 11.0871 7.10972 11.5752 6.45141 11.5752L4.63606 11.6852C4.58286 11.5752 4.63606 11.3071 4.82225 11.2521L5.29437 11.1146V5.75221L4.63606 5.69722C4.58286 5.44972 4.71586 5.0991 5.08159 5.0716L7.02992 4.93411L9.71637 9.18277V5.42222L9.03146 5.33972C8.97826 5.03723 9.19105 4.82411 9.45038 4.79661L11.279 4.68661ZM1.3179 0.602952L8.83197 0.0323396C9.75627 -0.0501586 9.989 0.00484017 10.5742 0.437956L12.9747 2.17729C13.3737 2.47979 13.5 2.55541 13.5 2.8854V12.4414C13.5 13.0396 13.2872 13.397 12.5491 13.452L3.82481 13.9952C3.27289 14.0227 3.00691 13.9402 2.71432 13.562L0.945524 11.1902C0.626343 10.7571 0.5 10.4271 0.5 10.049V1.55168C0.5 1.06357 0.712788 0.657951 1.3179 0.602952Z" fill="#1C1C1C"/>
</svg>
