<svg width="15" height="16" viewBox="0 0 15 16" fill="none" xmlns="http://www.w3.org/2000/svg">
<path d="M13.1507 4.09804C12.1165 3.28559 10.8556 2.81425 9.54212 2.74912L9.36212 2.95483C10.5316 3.26583 11.6218 3.82166 12.5603 4.58555C11.364 3.92668 10.0505 3.50777 8.69356 3.35233C7.83099 3.25736 6.96014 3.26599 6.09963 3.37805C6.02759 3.38042 5.9559 3.38902 5.88534 3.40376C4.87741 3.51843 3.89389 3.79143 2.97106 4.21269C2.49534 4.42698 2.21355 4.58448 2.21355 4.58448C3.20202 3.78248 4.35507 3.20814 5.59069 2.90233L5.46212 2.74805C4.14861 2.81318 2.88772 3.28452 1.85356 4.09697C0.678123 6.42045 0.0457908 8.98057 0.00427246 11.5841C0.447392 12.2057 1.03648 12.7088 1.71973 13.0492C2.40297 13.3896 3.15942 13.5569 3.92248 13.5363C3.92248 13.5363 4.39713 12.9588 4.77963 12.4702C3.87587 12.2431 3.07994 11.7072 2.52962 10.9552C2.52962 10.9552 2.65819 11.0452 2.88962 11.1695C2.90407 11.1851 2.9211 11.1982 2.93998 11.208C2.97962 11.2338 3.01819 11.2466 3.05569 11.2713C3.35767 11.4386 3.67093 11.5846 3.99319 11.7084C4.60408 11.9492 5.23561 12.1339 5.87998 12.2602C6.97674 12.4705 8.10306 12.4749 9.20142 12.273C9.84161 12.1613 10.4668 11.9761 11.0646 11.7213C11.5836 11.5249 12.0788 11.2708 12.541 10.9638C11.9708 11.7312 11.1477 12.2724 10.2171 12.4916C10.6028 12.9791 11.0646 13.5309 11.0646 13.5309C11.829 13.5501 12.5865 13.3823 13.2712 13.0421C13.9559 12.7019 14.5472 12.1995 14.9935 11.5788C14.9528 8.97792 14.3227 6.42019 13.1507 4.09804ZM5.0989 10.3905C4.73709 10.373 4.39676 10.2136 4.15168 9.94688C3.90659 9.68013 3.77651 9.32755 3.78962 8.96555C3.78186 8.78592 3.80959 8.60652 3.8712 8.43761C3.93281 8.2687 4.02711 8.11359 4.1487 7.98115C4.2703 7.84871 4.41681 7.74153 4.57985 7.66574C4.74289 7.58996 4.91927 7.54705 5.0989 7.53948C5.27891 7.54593 5.45584 7.58808 5.61941 7.66348C5.78299 7.73888 5.92996 7.84604 6.05177 7.97872C6.17359 8.1114 6.26783 8.26696 6.32901 8.43637C6.3902 8.60577 6.41711 8.78565 6.40819 8.96555C6.41581 9.14509 6.38799 9.32437 6.32632 9.49315C6.26464 9.66194 6.17031 9.81692 6.04873 9.94925C5.92715 10.0816 5.78069 10.1887 5.61771 10.2644C5.45474 10.3401 5.27845 10.383 5.0989 10.3905ZM9.7864 10.3905C9.42459 10.373 9.08426 10.2136 8.83918 9.94688C8.5941 9.68013 8.46401 9.32755 8.47712 8.96555C8.46936 8.78592 8.49709 8.60652 8.5587 8.43761C8.62031 8.2687 8.71461 8.11359 8.8362 7.98115C8.9578 7.84871 9.10431 7.74153 9.26735 7.66574C9.43039 7.58996 9.60677 7.54705 9.7864 7.53948C9.96604 7.54705 10.1424 7.58996 10.3055 7.66574C10.4685 7.74153 10.615 7.84871 10.7366 7.98115C10.8582 8.11359 10.9525 8.2687 11.0141 8.43761C11.0757 8.60652 11.1035 8.78592 11.0957 8.96555C11.1033 9.14509 11.0755 9.32437 11.0138 9.49315C10.9521 9.66194 10.8578 9.81692 10.7362 9.94925C10.6146 10.0816 10.4682 10.1887 10.3052 10.2644C10.1422 10.3401 9.96595 10.383 9.7864 10.3905Z" fill="#1C1C1C"/>
</svg>
