<svg width="14" height="14" viewBox="0 0 14 14" fill="none" xmlns="http://www.w3.org/2000/svg">
<path fill-rule="evenodd" clip-rule="evenodd" d="M5.86194 8.79477C6.00494 7.83777 13.473 2.61177 11.714 3.48277L6.96994 6.05478C4.16194 7.65478 4.36993 7.39577 4.95993 9.29577C5.06294 9.78173 5.22168 10.2542 5.43295 10.7038C5.76395 11.0738 5.85694 8.82077 5.86194 8.79477ZM3.23294 7.76077C3.50194 7.86077 3.44296 7.82576 3.53296 8.11776C3.73296 8.76076 3.94494 9.35377 4.15094 9.99077C4.84594 12.1538 4.75994 12.1658 5.75094 11.4128C7.38394 10.1698 7.23194 10.0478 8.16894 10.6668L10.869 12.5108C11.637 13.0548 11.6769 11.9538 11.8099 11.3648L13.976 1.69677C14.024 1.50877 13.9959 1.39677 13.9219 1.32777C13.7649 1.19077 13.4049 1.27878 13.1159 1.38878L1.60095 5.54477C-1.84405 6.75977 1.02794 6.94777 3.23294 7.76077Z" fill="#1C1C1C"/>
</svg>
