<svg width="14" height="14" viewBox="0 0 14 14" fill="none" xmlns="http://www.w3.org/2000/svg">
<path fill-rule="evenodd" clip-rule="evenodd" d="M5.86096 8.79477C6.00396 7.83777 13.472 2.61177 11.713 3.48277L6.96896 6.05478C4.16096 7.65478 4.36895 7.39577 4.95895 9.29577C5.06197 9.78173 5.22071 10.2542 5.43197 10.7038C5.76297 11.0738 5.85596 8.82077 5.86096 8.79477ZM3.23196 7.76077C3.50096 7.86077 3.44198 7.82576 3.53198 8.11776C3.73198 8.76076 3.94396 9.35377 4.14996 9.99077C4.84496 12.1538 4.75897 12.1658 5.74997 11.4128C7.38297 10.1698 7.23097 10.0478 8.16797 10.6668L10.868 12.5108C11.636 13.0548 11.676 11.9538 11.809 11.3648L13.975 1.69677C14.023 1.50877 13.995 1.39677 13.921 1.32777C13.764 1.19077 13.404 1.27878 13.115 1.38878L1.59997 5.54477C-1.84503 6.75977 1.02696 6.94777 3.23196 7.76077Z" fill="white"/>
</svg>
