<svg width="14" height="14" viewBox="0 0 14 14" fill="none" xmlns="http://www.w3.org/2000/svg">
<path d="M6.99935 12.8346C10.221 12.8346 12.8327 10.223 12.8327 7.0013C12.8327 3.77964 10.221 1.16797 6.99935 1.16797C3.77769 1.16797 1.16602 3.77964 1.16602 7.0013C1.16602 10.223 3.77769 12.8346 6.99935 12.8346Z" stroke="white" stroke-linecap="round" stroke-linejoin="round"/>
<path d="M4.66628 1.75H5.24961C4.11211 5.15667 4.11211 8.84333 5.24961 12.25H4.66628" stroke="white" stroke-linecap="round" stroke-linejoin="round"/>
<path d="M8.75 1.75C9.8875 5.15667 9.8875 8.84333 8.75 12.25" stroke="white" stroke-linecap="round" stroke-linejoin="round"/>
<path d="M1.75 9.33333V8.75C5.15667 9.8875 8.84333 9.8875 12.25 8.75V9.33333" stroke="white" stroke-linecap="round" stroke-linejoin="round"/>
<path d="M1.75 5.25156C5.15667 4.11406 8.84333 4.11406 12.25 5.25156" stroke="white" stroke-linecap="round" stroke-linejoin="round"/>
</svg>
