<svg width="14" height="14" viewBox="0 0 14 14" fill="none" xmlns="http://www.w3.org/2000/svg">
<path fill-rule="evenodd" clip-rule="evenodd" d="M12.4695 2.29272C13.0722 2.45407 13.5459 2.92773 13.7073 3.53046C13.9988 4.62183 14 6.90023 14 6.90023C14 6.90023 14 9.17864 13.7073 10.27C13.5459 10.8727 13.0722 11.3464 12.4695 11.5077C11.3782 11.8005 6.99998 11.8005 6.99998 11.8005C6.99998 11.8005 2.62183 11.8005 1.53045 11.5077C0.927726 11.3464 0.454066 10.8727 0.292723 10.27C0 9.17864 0 6.90023 0 6.90023C0 6.90023 0 4.62183 0.292723 3.53046C0.454066 2.92773 0.927726 2.45407 1.53045 2.29272C2.62183 2 6.99998 2 6.99998 2C6.99998 2 11.3782 2 12.4695 2.29272ZM9.23578 6.90032L5.59863 9.00007V4.80054L9.23578 6.90032Z" fill="white"/>
</svg>
