<svg width="14" height="14" viewBox="0 0 14 14" fill="none" xmlns="http://www.w3.org/2000/svg">
<path fill-rule="evenodd" clip-rule="evenodd" d="M12.4705 2.29272C13.0732 2.45407 13.5469 2.92773 13.7082 3.53046C13.9998 4.62183 14.001 6.90023 14.001 6.90023C14.001 6.90023 14.001 9.17864 13.7082 10.27C13.5469 10.8727 13.0732 11.3464 12.4705 11.5077C11.3792 11.8005 7.00095 11.8005 7.00095 11.8005C7.00095 11.8005 2.6228 11.8005 1.53143 11.5077C0.928702 11.3464 0.455043 10.8727 0.2937 10.27C0.000976562 9.17864 0.000976562 6.90023 0.000976562 6.90023C0.000976562 6.90023 0.000976562 4.62183 0.2937 3.53046C0.455043 2.92773 0.928702 2.45407 1.53143 2.29272C2.6228 2 7.00095 2 7.00095 2C7.00095 2 11.3792 2 12.4705 2.29272ZM9.23675 6.90032L5.59961 9.00007V4.80054L9.23675 6.90032Z" fill="#1C1C1C"/>
</svg>
