<svg width="14" height="14" viewBox="0 0 14 14" fill="none" xmlns="http://www.w3.org/2000/svg">
<path fill-rule="evenodd" clip-rule="evenodd" d="M7 0C10.866 0 14 3.134 14 7C14 10.4939 11.4402 13.3898 8.09375 13.915V9.02344H9.7248L10.0352 7H8.09376V5.68692C8.09376 5.34093 8.19968 5.00041 8.49143 4.79367C8.66647 4.66963 8.90841 4.59375 9.2345 4.59375H10.1172V2.87109C10.1172 2.87109 10.0671 2.86255 9.98006 2.84973C9.71885 2.81128 9.12465 2.73438 8.55025 2.73438C8.45032 2.73438 8.35254 2.73816 8.25706 2.74569C8.06586 2.76076 7.88381 2.79083 7.71188 2.83553C6.93934 3.03641 6.3711 3.53284 6.09452 4.29215C5.97157 4.62971 5.90625 5.01922 5.90625 5.45781V7H4.12891L4.12891 9.02344H5.90625V13.915C2.5598 13.3898 0 10.4939 0 7C0 3.134 3.134 0 7 0Z" fill="white"/>
</svg>
