<svg xmlns="http://www.w3.org/2000/svg" width="190" height="124" viewBox="0 0 190 124" fill="none">
  <mask id="mask0_2881_53196" style="mask-type:alpha" maskUnits="userSpaceOnUse" x="0" y="0" width="190" height="124">
    <path d="M0.5 0.5H189.5V110C189.5 117.456 183.456 123.5 176 123.5H0.5V0.5Z" fill="white" stroke="#E1E8ED"/>
  </mask>
  <g mask="url(#mask0_2881_53196)">
    <path d="M236.907 111.681L72.3672 16.6836L72.1621 17.0388L236.702 112.036L236.907 111.681Z" fill="#1C1C1C"/>
    <path d="M246.54 94.9972L82 0L81.7949 0.355223L246.335 95.3524L246.54 94.9972Z" fill="#1C1C1C"/>
    <path d="M227.276 128.364L62.7363 33.3672L62.5312 33.7224L227.071 128.72L227.276 128.364Z" fill="#1C1C1C"/>
    <path d="M236.907 111.681L72.3672 16.6836L72.1621 17.0388L236.702 112.036L236.907 111.681Z" fill="#1C1C1C"/>
    <path d="M217.645 145.048L53.1055 50.0508L52.9004 50.406L217.44 145.403L217.645 145.048Z" fill="#1C1C1C"/>
    <path d="M227.276 128.364L62.7363 33.3672L62.5312 33.7224L227.071 128.72L227.276 128.364Z" fill="#1C1C1C"/>
    <path d="M208.015 161.736L43.4746 66.7383L43.2695 67.0935L207.81 162.091L208.015 161.736Z" fill="#1C1C1C"/>
    <path d="M217.645 145.048L53.1055 50.0508L52.9004 50.406L217.44 145.403L217.645 145.048Z" fill="#1C1C1C"/>
    <path d="M198.378 178.419L33.8379 83.4219L33.6328 83.7771L198.173 178.774L198.378 178.419Z" fill="#1C1C1C"/>
    <path d="M208.015 161.736L43.4746 66.7383L43.2695 67.0935L207.81 162.091L208.015 161.736Z" fill="#1C1C1C"/>
    <path d="M188.745 195.103L24.2051 100.105L24 100.461L188.54 195.458L188.745 195.103Z" fill="#1C1C1C"/>
    <path d="M198.378 178.419L33.8379 83.4219L33.6328 83.7771L198.173 178.774L198.378 178.419Z" fill="#1C1C1C"/>
    <path d="M179.114 211.786L14.5742 116.789L14.3691 117.144L178.909 212.142L179.114 211.786Z" fill="#1C1C1C"/>
    <path d="M188.745 195.103L24.2051 100.105L24 100.461L188.54 195.458L188.745 195.103Z" fill="#1C1C1C"/>
    <path d="M232.095 120.025L67.5547 25.0273L67.3496 25.3826L231.89 120.38L232.095 120.025Z" fill="#1C1C1C"/>
    <path d="M241.726 103.345L77.1855 8.34766L76.9805 8.70288L241.52 103.7L241.726 103.345Z" fill="#1C1C1C"/>
    <path d="M222.462 136.712L57.9219 41.7148L57.7168 42.0701L222.257 137.067L222.462 136.712Z" fill="#1C1C1C"/>
    <path d="M232.095 120.025L67.5547 25.0273L67.3496 25.3826L231.89 120.38L232.095 120.025Z" fill="#1C1C1C"/>
    <path d="M212.831 153.392L48.291 58.3945L48.0859 58.7498L212.626 153.747L212.831 153.392Z" fill="#1C1C1C"/>
    <path d="M222.462 136.712L57.9219 41.7148L57.7168 42.0701L222.257 137.067L222.462 136.712Z" fill="#1C1C1C"/>
    <path d="M203.194 170.079L38.6543 75.082L38.4492 75.4373L202.989 170.434L203.194 170.079Z" fill="#1C1C1C"/>
    <path d="M212.831 153.392L48.291 58.3945L48.0859 58.7498L212.626 153.747L212.831 153.392Z" fill="#1C1C1C"/>
    <path d="M193.565 186.763L29.0254 91.7656L28.8203 92.1208L193.36 187.118L193.565 186.763Z" fill="#1C1C1C"/>
    <path d="M203.194 170.079L38.6543 75.082L38.4492 75.4373L202.989 170.434L203.194 170.079Z" fill="#1C1C1C"/>
    <path d="M183.935 203.443L19.3945 108.445L19.1894 108.801L183.729 203.798L183.935 203.443Z" fill="#1C1C1C"/>
    <path d="M193.565 186.763L29.0254 91.7656L28.8203 92.1208L193.36 187.118L193.565 186.763Z" fill="#1C1C1C"/>
    <path d="M183.935 203.443L19.3945 108.445L19.1894 108.801L183.729 203.798L183.935 203.443Z" fill="#1C1C1C"/>
    <path d="M224.456 104.019L85.2305 23.6367L84.6142 24.7042L223.84 105.086L224.456 104.019Z" fill="#1C1C1C"/>
    <path d="M214.827 120.706L75.6016 40.3242L74.9853 41.3917L214.211 121.774L214.827 120.706Z" fill="#1C1C1C"/>
    <path d="M224.456 104.019L85.2305 23.6367L84.6142 24.7042L223.84 105.086L224.456 104.019Z" fill="#1C1C1C"/>
    <path d="M205.19 137.386L65.9648 57.0039L65.3496 58.0696L204.575 138.452L205.19 137.386Z" fill="#1C1C1C"/>
    <path d="M214.827 120.706L75.6016 40.3242L74.9853 41.3917L214.211 121.774L214.827 120.706Z" fill="#1C1C1C"/>
    <path d="M195.56 154.073L56.334 73.6914L55.7177 74.7589L194.943 155.141L195.56 154.073Z" fill="#1C1C1C"/>
    <path d="M205.19 137.386L65.9648 57.0039L65.3496 58.0696L204.575 138.452L205.19 137.386Z" fill="#1C1C1C"/>
    <path d="M185.925 170.757L46.6992 90.375L46.0829 91.4425L185.309 171.824L185.925 170.757Z" fill="#1C1C1C"/>
    <path d="M195.56 154.073L56.334 73.6914L55.7177 74.7589L194.943 155.141L195.56 154.073Z" fill="#1C1C1C"/>
    <path d="M176.294 187.441L37.0684 107.059L36.452 108.126L175.678 188.508L176.294 187.441Z" fill="#1C1C1C"/>
    <path d="M185.925 170.757L46.6992 90.375L46.0829 91.4425L185.309 171.824L185.925 170.757Z" fill="#1C1C1C"/>
    <path d="M166.661 204.128L27.4355 123.746L26.8192 124.814L166.045 205.196L166.661 204.128Z" fill="#1C1C1C"/>
    <path d="M176.294 187.441L37.0684 107.059L36.452 108.126L175.678 188.508L176.294 187.441Z" fill="#1C1C1C"/>
    <path d="M219.642 112.359L80.416 31.9766L79.7997 33.044L219.025 113.426L219.642 112.359Z" fill="#1C1C1C"/>
    <path d="M229.274 95.6788L90.0488 15.2969L89.4325 16.3644L228.658 96.7463L229.274 95.6788Z" fill="#1C1C1C"/>
    <path d="M210.007 129.046L70.7812 48.6641L70.1649 49.7315L209.391 130.113L210.007 129.046Z" fill="#1C1C1C"/>
    <path d="M219.642 112.359L80.416 31.9766L79.7997 33.044L219.025 113.426L219.642 112.359Z" fill="#1C1C1C"/>
    <path d="M200.378 145.73L61.1523 65.3477L60.536 66.4151L199.762 146.797L200.378 145.73Z" fill="#1C1C1C"/>
    <path d="M210.007 129.046L70.7812 48.6641L70.1649 49.7315L209.391 130.113L210.007 129.046Z" fill="#1C1C1C"/>
    <path d="M190.745 162.413L51.5195 82.0312L50.9032 83.0987L190.129 163.481L190.745 162.413Z" fill="#1C1C1C"/>
    <path d="M200.378 145.73L61.1523 65.3477L60.536 66.4151L199.762 146.797L200.378 145.73Z" fill="#1C1C1C"/>
    <path d="M181.108 179.097L41.8828 98.7148L41.2665 99.7823L180.492 180.164L181.108 179.097Z" fill="#1C1C1C"/>
    <path d="M190.745 162.413L51.5195 82.0312L50.9032 83.0987L190.129 163.481L190.745 162.413Z" fill="#1C1C1C"/>
    <path d="M171.48 195.78L32.2539 115.398L31.6376 116.466L170.863 196.848L171.48 195.78Z" fill="#1C1C1C"/>
    <path d="M181.108 179.097L41.8828 98.7148L41.2665 99.7823L180.492 180.164L181.108 179.097Z" fill="#1C1C1C"/>
    <path d="M171.48 195.78L32.2539 115.398L31.6376 116.466L170.863 196.848L171.48 195.78Z" fill="#1C1C1C"/>
    <path d="M212.108 96.1779L98.1953 30.4102L96.9637 32.5433L210.877 98.311L212.108 96.1779Z" fill="#1C1C1C"/>
    <path d="M202.477 112.861L88.5645 47.0938L87.3329 49.2269L201.246 114.995L202.477 112.861Z" fill="#1C1C1C"/>
    <path d="M212.108 96.1779L98.1953 30.4102L96.9637 32.5433L210.877 98.311L212.108 96.1779Z" fill="#1C1C1C"/>
    <path d="M192.847 129.545L78.9336 63.7773L77.702 65.9105L191.615 131.678L192.847 129.545Z" fill="#1C1C1C"/>
    <path d="M202.477 112.861L88.5645 47.0938L87.3329 49.2269L201.246 114.995L202.477 112.861Z" fill="#1C1C1C"/>
    <path d="M183.208 146.229L69.2949 80.4609L68.0633 82.5941L181.976 148.362L183.208 146.229Z" fill="#1C1C1C"/>
    <path d="M192.847 129.545L78.9336 63.7773L77.702 65.9105L191.615 131.678L192.847 129.545Z" fill="#1C1C1C"/>
    <path d="M173.577 162.916L59.6641 97.1484L58.4325 99.2816L172.345 165.049L173.577 162.916Z" fill="#1C1C1C"/>
    <path d="M183.208 146.229L69.2949 80.4609L68.0633 82.5941L181.976 148.362L183.208 146.229Z" fill="#1C1C1C"/>
    <path d="M163.944 179.6L50.0312 113.832L48.7997 115.965L162.713 181.733L163.944 179.6Z" fill="#1C1C1C"/>
    <path d="M173.577 162.916L59.6641 97.1484L58.4325 99.2816L172.345 165.049L173.577 162.916Z" fill="#1C1C1C"/>
    <path d="M163.944 179.6L50.0312 113.832L48.7997 115.965L162.713 181.733L163.944 179.6Z" fill="#1C1C1C"/>
    <path d="M207.29 104.522L93.377 38.7539L92.1454 40.8871L206.058 106.655L207.29 104.522Z" fill="#1C1C1C"/>
    <path d="M197.659 121.205L83.7461 55.4375L82.5145 57.5706L196.428 123.338L197.659 121.205Z" fill="#1C1C1C"/>
    <path d="M207.29 104.522L93.377 38.7539L92.1454 40.8871L206.058 106.655L207.29 104.522Z" fill="#1C1C1C"/>
    <path d="M188.028 137.889L74.1152 72.1211L72.8837 74.2542L186.797 140.022L188.028 137.889Z" fill="#1C1C1C"/>
    <path d="M197.659 121.205L83.7461 55.4375L82.5145 57.5706L196.428 123.338L197.659 121.205Z" fill="#1C1C1C"/>
    <path d="M178.395 154.572L64.4824 88.8047L63.2508 90.9378L177.164 156.706L178.395 154.572Z" fill="#1C1C1C"/>
    <path d="M188.028 137.889L74.1152 72.1211L72.8837 74.2542L186.797 140.022L188.028 137.889Z" fill="#1C1C1C"/>
    <path d="M168.763 171.256L54.8496 105.488L53.618 107.621L167.531 173.389L168.763 171.256Z" fill="#1C1C1C"/>
    <path d="M178.395 154.572L64.4824 88.8047L63.2508 90.9378L177.164 156.706L178.395 154.572Z" fill="#1C1C1C"/>
    <path d="M159.128 187.94L45.2148 122.172L43.9833 124.305L157.896 190.073L159.128 187.94Z" fill="#1C1C1C"/>
    <path d="M168.763 171.256L54.8496 105.488L53.618 107.621L167.531 173.389L168.763 171.256Z" fill="#1C1C1C"/>
    <path d="M159.128 187.94L45.2148 122.172L43.9833 124.305L157.896 190.073L159.128 187.94Z" fill="#1C1C1C"/>
    <path d="M190.231 104.844L101.633 53.6914L99.5798 57.2473L188.178 108.4L190.231 104.844Z" fill="#1C1C1C"/>
    <path d="M180.597 121.527L91.998 70.375L89.9451 73.9309L178.544 125.083L180.597 121.527Z" fill="#1C1C1C"/>
    <path d="M190.231 104.844L101.633 53.6914L99.5798 57.2473L188.178 108.4L190.231 104.844Z" fill="#1C1C1C"/>
    <path d="M170.962 138.211L82.3633 87.0586L80.3103 90.6144L168.909 141.767L170.962 138.211Z" fill="#1C1C1C"/>
    <path d="M180.597 121.527L91.998 70.375L89.9451 73.9309L178.544 125.083L180.597 121.527Z" fill="#1C1C1C"/>
    <path d="M161.333 154.895L72.7344 103.742L70.6814 107.298L159.28 158.45L161.333 154.895Z" fill="#1C1C1C"/>
    <path d="M170.962 138.211L82.3633 87.0586L80.3103 90.6144L168.909 141.767L170.962 138.211Z" fill="#1C1C1C"/>
    <path d="M151.7 171.582L63.1016 120.43L61.0486 123.986L149.647 175.138L151.7 171.582Z" fill="#1C1C1C"/>
    <path d="M161.333 154.895L72.7344 103.742L70.6814 107.298L159.28 158.45L161.333 154.895Z" fill="#1C1C1C"/>
    <path d="M195.042 96.5079L106.443 45.3555L104.39 48.9113L192.989 100.064L195.042 96.5079Z" fill="#1C1C1C"/>
    <path d="M185.415 113.188L96.8164 62.0352L94.7634 65.591L183.362 116.743L185.415 113.188Z" fill="#1C1C1C"/>
    <path d="M195.042 96.5079L106.443 45.3555L104.39 48.9113L192.989 100.064L195.042 96.5079Z" fill="#1C1C1C"/>
    <path d="M175.78 129.867L87.1816 78.7148L85.1287 82.2707L173.727 133.423L175.78 129.867Z" fill="#1C1C1C"/>
    <path d="M185.415 113.188L96.8164 62.0352L94.7634 65.591L183.362 116.743L185.415 113.188Z" fill="#1C1C1C"/>
    <path d="M166.145 146.559L77.5469 95.4062L75.4939 98.9621L164.093 150.115L166.145 146.559Z" fill="#1C1C1C"/>
    <path d="M175.78 129.867L87.1816 78.7148L85.1287 82.2707L173.727 133.423L175.78 129.867Z" fill="#1C1C1C"/>
    <path d="M156.513 163.238L67.9141 112.086L65.8611 115.642L154.46 166.794L156.513 163.238Z" fill="#1C1C1C"/>
    <path d="M166.145 146.559L77.5469 95.4062L75.4939 98.9621L164.093 150.115L166.145 146.559Z" fill="#1C1C1C"/>
    <path d="M156.513 163.238L67.9141 112.086L65.8611 115.642L154.46 166.794L156.513 163.238Z" fill="#1C1C1C"/>
    <path d="M178.087 96.6465L114.803 60.1094L111.724 65.4413L175.009 101.978L178.087 96.6465Z" fill="#1C1C1C"/>
    <path d="M168.45 113.33L105.166 76.793L102.087 82.1267L165.371 118.664L168.45 113.33Z" fill="#1C1C1C"/>
    <path d="M178.087 96.6465L114.803 60.1094L111.724 65.4413L175.009 101.978L178.087 96.6465Z" fill="#1C1C1C"/>
    <path d="M158.819 130.014L95.5352 93.4766L92.4557 98.8103L155.74 135.347L158.819 130.014Z" fill="#1C1C1C"/>
    <path d="M168.45 113.33L105.166 76.793L102.087 82.1267L165.371 118.664L168.45 113.33Z" fill="#1C1C1C"/>
    <path d="M149.187 146.701L85.9023 110.164L82.8229 115.498L146.107 152.035L149.187 146.701Z" fill="#1C1C1C"/>
    <path d="M158.819 130.014L95.5352 93.4766L92.4557 98.8103L155.74 135.347L158.819 130.014Z" fill="#1C1C1C"/>
    <path d="M173.269 104.986L109.984 68.4492L106.905 73.783L170.189 110.32L173.269 104.986Z" fill="#1C1C1C"/>
    <path d="M163.634 121.678L100.35 85.1406L97.2702 90.4744L160.554 127.012L163.634 121.678Z" fill="#1C1C1C"/>
    <path d="M173.269 104.986L109.984 68.4492L106.905 73.783L170.189 110.32L173.269 104.986Z" fill="#1C1C1C"/>
    <path d="M154.003 138.361L90.7188 101.824L87.6393 107.158L150.923 143.695L154.003 138.361Z" fill="#1C1C1C"/>
    <path d="M163.634 121.678L100.35 85.1406L97.2702 90.4744L160.554 127.012L163.634 121.678Z" fill="#1C1C1C"/>
    <path d="M144.37 155.037L81.0859 118.5L78.0065 123.834L141.291 160.371L144.37 155.037Z" fill="#1C1C1C"/>
    <path d="M154.003 138.361L90.7188 101.824L87.6393 107.158L150.923 143.695L154.003 138.361Z" fill="#1C1C1C"/>
    <path d="M156.413 104.958L118.441 83.0352L114.13 90.5021L152.102 112.425L156.413 104.958Z" fill="#1C1C1C"/>
    <path d="M146.78 121.642L108.809 99.7188L104.498 107.186L142.469 129.109L146.78 121.642Z" fill="#1C1C1C"/>
    <path d="M156.413 104.958L118.441 83.0352L114.13 90.5021L152.102 112.425L156.413 104.958Z" fill="#1C1C1C"/>
    <path d="M137.151 138.325L99.1797 116.402L94.8687 123.869L132.84 145.792L137.151 138.325Z" fill="#1C1C1C"/>
    <path d="M146.78 121.642L108.809 99.7188L104.498 107.186L142.469 129.109L146.78 121.642Z" fill="#1C1C1C"/>
    <path d="M161.229 96.6143L123.258 74.6914L118.947 82.1583L156.918 104.081L161.229 96.6143Z" fill="#1C1C1C"/>
    <path d="M151.593 113.302L113.621 91.3789L109.31 98.8458L147.282 120.769L151.593 113.302Z" fill="#1C1C1C"/>
    <path d="M161.229 96.6143L123.258 74.6914L118.947 82.1583L156.918 104.081L161.229 96.6143Z" fill="#1C1C1C"/>
    <path d="M141.964 129.982L103.992 108.059L99.6812 115.526L137.653 137.448L141.964 129.982Z" fill="#1C1C1C"/>
    <path d="M151.593 113.302L113.621 91.3789L109.31 98.8458L147.282 120.769L151.593 113.302Z" fill="#1C1C1C"/>
    <path d="M141.964 129.982L103.992 108.059L99.6812 115.526L137.653 137.448L141.964 129.982Z" fill="#1C1C1C"/>
  </g>
</svg>